
******* The.Good.Guy.2009.DVDRiP.XviD.OPTIONAL-NORDIC_SUB-Zen_Bud *******

Format                           : AVI
File size                        : 706 MiB
Duration                         : 1h 26mn
Overall bit rate                 : 1 135 Kbps

Video

Format                           : MPEG-4 Visual
Codec ID/Hint                    : XviD
Duration                         : 1h 26mn
Bit rate                         : 994 Kbps
Width                            : 720 pixels
Height                           : 576 pixels
Display aspect ratio             : 16:9
Stream size                      : 618 MiB (88%)
Writing library                  : XviD 1.1.2 (UTC 2006-11-01)

Audio

Format                           : MPEG Audio
Codec ID/Hint                    : MP3
Duration                         : 1h 26mn
Bit rate                         : 128 Kbps
Channel(s)                       : 2 channels
Sampling rate                    : 48.0 KHz
Stream size                      : 79.6 MiB (11%)
Language                         : English

Text #1
Language                         : Swedish

Text #2
Language                         : Danish

Text #3
Language                         : Norwegian

Text #4
Language                         : Finnish

Text #5
Language                         : Icelandic

Ambitious young Manhattanite and urban conservationist Beth wants it all: a good job, good friends, and a good guy to share the city with. Of course that last one is often the trickiest of all. Beth falls hard for Tommy, a sexy, young Wall Street hot-shot. But just as everything seems to be falling into place